<svg width="" height="" viewBox="0 0 100 100" fill="none" xmlns="http://www.w3.org/2000/svg">
<mask id="mask0_186_220" style="mask-type:alpha" maskUnits="userSpaceOnUse" x="0" y="0" width="100" height="100">
<circle cx="50" cy="50" r="50" fill="#D9D9D9"/>
</mask>
<g mask="url(#mask0_186_220)">
<circle cx="50" cy="50" r="50" fill="#0ABAFE"/>
<mask id="path-3-outside-1_186_220" maskUnits="userSpaceOnUse" x="6.21313" y="5.75266" width="86" height="88" fill="black">
<rect fill="white" x="6.21313" y="5.75266" width="86" height="88"/>
<path d="M86.1524 49.0134C86.1524 52.5454 85.7448 55.9609 84.9297 59.2601C84.1147 62.5204 82.9309 65.5866 81.3783 68.4588C79.8646 71.331 78.0016 73.9703 75.7892 76.3767C73.6157 78.7443 71.151 80.782 68.3953 82.4898C65.6784 84.1976 62.7092 85.5366 59.4877 86.507C56.2662 87.4385 52.8506 87.9042 49.241 87.9042C45.7478 87.9042 42.4098 87.4579 39.2271 86.5652C36.0833 85.6725 33.1335 84.4304 30.3777 82.8391C27.622 81.209 25.1185 79.2683 22.8674 77.0171C20.655 74.7271 18.7532 72.2043 17.1618 69.4485C15.6093 66.654 14.3867 63.6654 13.494 60.4827C12.6401 57.3 12.2131 53.9815 12.2131 50.5271C12.2131 47.1503 12.6207 43.8512 13.4358 40.6297C14.2508 37.3694 15.4152 34.3031 16.9289 31.431C18.4815 28.5588 20.3445 25.9195 22.518 23.5131C24.6916 21.1066 27.1174 19.0301 29.7955 17.2835C32.5125 15.5369 35.4429 14.1785 38.5867 13.2082C41.7306 12.2378 45.0491 11.7527 48.5423 11.7527C54.1702 11.7527 59.2936 12.626 63.9124 14.3725C68.57 16.1191 72.5289 18.6226 75.7892 21.8829C79.0883 25.1044 81.6306 29.0245 83.416 33.6433C85.2402 38.2233 86.1524 43.3466 86.1524 49.0134Z"/>
</mask>
<path d="M86.1524 49.0134C86.1524 52.5454 85.7448 55.9609 84.9297 59.2601C84.1147 62.5204 82.9309 65.5866 81.3783 68.4588C79.8646 71.331 78.0016 73.9703 75.7892 76.3767C73.6157 78.7443 71.151 80.782 68.3953 82.4898C65.6784 84.1976 62.7092 85.5366 59.4877 86.507C56.2662 87.4385 52.8506 87.9042 49.241 87.9042C45.7478 87.9042 42.4098 87.4579 39.2271 86.5652C36.0833 85.6725 33.1335 84.4304 30.3777 82.8391C27.622 81.209 25.1185 79.2683 22.8674 77.0171C20.655 74.7271 18.7532 72.2043 17.1618 69.4485C15.6093 66.654 14.3867 63.6654 13.494 60.4827C12.6401 57.3 12.2131 53.9815 12.2131 50.5271C12.2131 47.1503 12.6207 43.8512 13.4358 40.6297C14.2508 37.3694 15.4152 34.3031 16.9289 31.431C18.4815 28.5588 20.3445 25.9195 22.518 23.5131C24.6916 21.1066 27.1174 19.0301 29.7955 17.2835C32.5125 15.5369 35.4429 14.1785 38.5867 13.2082C41.7306 12.2378 45.0491 11.7527 48.5423 11.7527C54.1702 11.7527 59.2936 12.626 63.9124 14.3725C68.57 16.1191 72.5289 18.6226 75.7892 21.8829C79.0883 25.1044 81.6306 29.0245 83.416 33.6433C85.2402 38.2233 86.1524 43.3466 86.1524 49.0134Z" fill="#F5EE08"/>
<path d="M86.1524 49.0134C86.1524 52.5454 85.7448 55.9609 84.9297 59.2601C84.1147 62.5204 82.9309 65.5866 81.3783 68.4588C79.8646 71.331 78.0016 73.9703 75.7892 76.3767C73.6157 78.7443 71.151 80.782 68.3953 82.4898C65.6784 84.1976 62.7092 85.5366 59.4877 86.507C56.2662 87.4385 52.8506 87.9042 49.241 87.9042C45.7478 87.9042 42.4098 87.4579 39.2271 86.5652C36.0833 85.6725 33.1335 84.4304 30.3777 82.8391C27.622 81.209 25.1185 79.2683 22.8674 77.0171C20.655 74.7271 18.7532 72.2043 17.1618 69.4485C15.6093 66.654 14.3867 63.6654 13.494 60.4827C12.6401 57.3 12.2131 53.9815 12.2131 50.5271C12.2131 47.1503 12.6207 43.8512 13.4358 40.6297C14.2508 37.3694 15.4152 34.3031 16.9289 31.431C18.4815 28.5588 20.3445 25.9195 22.518 23.5131C24.6916 21.1066 27.1174 19.0301 29.7955 17.2835C32.5125 15.5369 35.4429 14.1785 38.5867 13.2082C41.7306 12.2378 45.0491 11.7527 48.5423 11.7527C54.1702 11.7527 59.2936 12.626 63.9124 14.3725C68.57 16.1191 72.5289 18.6226 75.7892 21.8829C79.0883 25.1044 81.6306 29.0245 83.416 33.6433C85.2402 38.2233 86.1524 43.3466 86.1524 49.0134Z" stroke="black" stroke-width="10.3194" mask="url(#path-3-outside-1_186_220)"/>
<path d="M71.4554 56.3963C65.3052 49.0826 58.1395 54.9147 49.5881 54.9796C41.934 55.0378 35.595 49.938 30.0221 56.3963C21.3825 66.4084 36.6422 84.5438 48.4368 86.1463C61.3926 87.9067 80.8297 67.5439 71.4554 56.3963Z" fill="black"/>
<path d="M28.4444 22.1024C28.8359 19.9042 31.6455 19.2076 33.0186 20.9682L37.1566 26.2742C37.723 27.0003 38.6334 27.3696 39.5456 27.243L46.2105 26.3181C48.4221 26.0112 49.9528 28.468 48.7026 30.318L44.9351 35.8931C44.4195 36.6561 44.3497 37.6361 44.7519 38.4645L47.6911 44.5174C48.6664 46.5259 46.8028 48.7409 44.6571 48.1236L38.1906 46.2633C37.3056 46.0087 36.352 46.2451 35.6885 46.8837L30.8401 51.5494C29.2313 53.0976 26.5488 52.0098 26.4728 49.7783L26.2438 43.0534C26.2125 42.1331 25.6929 41.2992 24.8806 40.8655L18.945 37.6962C16.9754 36.6445 17.1811 33.7572 19.2798 32.9954L25.6048 30.6995C26.4704 30.3853 27.1029 29.6335 27.2644 28.7269L28.4444 22.1024Z" fill="#FE0798"/>
<path d="M68.4972 20.2614C69.7852 18.4375 72.6247 19 73.1201 21.1771L74.6795 28.0299C74.8838 28.9278 75.5513 29.6488 76.4309 29.9215L83.1435 32.0033C85.276 32.6646 85.6185 35.5389 83.7011 36.6829L77.6656 40.2836C76.8747 40.7554 76.3953 41.613 76.4077 42.5338L76.5022 49.5612C76.5322 51.7937 73.9044 53.0077 72.2239 51.5376L66.9343 46.9101C66.2412 46.3038 65.2775 46.1129 64.4056 46.4092L57.7514 48.6706C55.6373 49.3891 53.6708 47.265 54.5497 45.2125L57.316 38.7518C57.6785 37.9053 57.5622 36.9297 57.011 36.192L52.804 30.5623C51.4675 28.7738 52.8799 26.2471 55.1035 26.4487L62.1028 27.0832C63.0199 27.1664 63.9118 26.7543 64.443 26.0021L68.4972 20.2614Z" fill="#FE0798"/>
</g>
</svg>
