<svg width="2820" height="1290" viewBox="0 0 2820 1290" fill="none" xmlns="http://www.w3.org/2000/svg">
<mask id="path-1-outside-1_576_1604" maskUnits="userSpaceOnUse" x="0" y="0" width="2820" height="1290" fill="black">
<rect fill="white" width="2820" height="1290"/>
<path fill-rule="evenodd" clip-rule="evenodd" d="M1702 1270C2308.41 1270 2800 990.178 2800 645C2800 299.822 2308.41 20 1702 20C1095.59 20 604 299.822 604 645C604 692.321 613.239 738.413 630.746 782.725C482.282 888.145 221.216 973.638 68 1012C444.876 1151.08 762.802 1128.82 927.362 1087.94C1125.92 1200.46 1399.69 1270 1702 1270Z"/>
</mask>
<path fill-rule="evenodd" clip-rule="evenodd" d="M1702 1270C2308.41 1270 2800 990.178 2800 645C2800 299.822 2308.41 20 1702 20C1095.59 20 604 299.822 604 645C604 692.321 613.239 738.413 630.746 782.725C482.282 888.145 221.216 973.638 68 1012C444.876 1151.08 762.802 1128.82 927.362 1087.94C1125.92 1200.46 1399.69 1270 1702 1270Z" fill="white"/>
<path d="M630.746 782.725L642.325 799.032L655.107 789.956L649.347 775.376L630.746 782.725ZM68 1012L63.1424 992.599L0.297756 1008.33L61.0757 1030.76L68 1012ZM927.362 1087.94L937.222 1070.54L930.282 1066.61L922.54 1068.53L927.362 1087.94ZM2780 645C2780 807.275 2664.26 958.137 2468.51 1069.56C2273.34 1180.65 2002.38 1250 1702 1250V1290C2008.03 1290 2286.07 1219.44 2488.3 1104.32C2689.95 989.541 2820 827.903 2820 645H2780ZM1702 40C2002.38 40 2273.34 109.347 2468.51 220.44C2664.26 331.863 2780 482.725 2780 645H2820C2820 462.097 2689.95 300.459 2488.3 185.677C2286.07 70.5643 2008.03 0 1702 0V40ZM624 645C624 482.725 739.742 331.863 935.491 220.44C1130.66 109.347 1401.62 40 1702 40V0C1395.97 0 1117.93 70.5643 915.703 185.677C714.054 300.459 584 462.097 584 645H624ZM649.347 775.376C632.712 733.272 624 689.666 624 645H584C584 694.976 593.766 743.555 612.145 790.074L649.347 775.376ZM619.167 766.418C473.94 869.539 216.001 954.327 63.1424 992.599L72.8576 1031.4C226.432 992.95 490.623 906.752 642.325 799.032L619.167 766.418ZM61.0757 1030.76C441.958 1171.32 763.992 1149.13 932.183 1107.35L922.54 1068.53C761.612 1108.51 447.795 1130.84 74.9243 993.237L61.0757 1030.76ZM1702 1250C1402.51 1250 1132.26 1181.06 937.222 1070.54L917.502 1105.34C1119.58 1219.85 1396.88 1290 1702 1290V1250Z" fill="black" mask="url(#path-1-outside-1_576_1604)"/>
<path d="M952.383 579L936.707 430.374H978.412L984.798 530.232H986.153L1026.79 430.374H1067.72L1075.46 529.651H1076.72L1116.01 430.374H1157.62L1092.49 579H1048.85L1038.79 485.528H1036.95L995.926 579H952.383ZM1218.45 581.903C1203.23 581.903 1190.62 578.806 1180.62 572.614C1170.62 566.356 1163.59 557.519 1159.53 546.101C1155.53 534.618 1154.85 521.04 1157.49 505.364C1160.07 490.076 1165.27 476.658 1173.07 465.111C1180.94 453.564 1190.81 444.565 1202.68 438.115C1214.55 431.664 1227.78 428.438 1242.35 428.438C1252.16 428.438 1261.03 430.019 1268.96 433.18C1276.96 436.276 1283.61 440.985 1288.9 447.307C1294.19 453.564 1297.8 461.402 1299.73 470.82C1301.73 480.238 1301.7 491.269 1299.64 503.913L1297.8 515.234H1172.4L1176.36 489.689H1263.06C1264.03 483.754 1263.64 478.497 1261.9 473.916C1260.16 469.336 1257.26 465.756 1253.19 463.176C1249.13 460.531 1244.13 459.209 1238.19 459.209C1232.13 459.209 1226.45 460.692 1221.16 463.66C1215.87 466.627 1211.42 470.53 1207.81 475.368C1204.26 480.141 1201.97 485.334 1200.94 490.947L1196.39 516.298C1195.1 524.104 1195.36 530.587 1197.17 535.747C1199.04 540.908 1202.26 544.779 1206.84 547.359C1211.42 549.875 1217.23 551.133 1224.26 551.133C1228.84 551.133 1233.13 550.487 1237.13 549.197C1241.19 547.907 1244.81 546.004 1247.97 543.488C1251.13 540.908 1253.71 537.715 1255.71 533.909L1293.35 536.425C1289.86 545.585 1284.57 553.584 1277.48 560.422C1270.38 567.195 1261.84 572.485 1251.84 576.291C1241.9 580.032 1230.78 581.903 1218.45 581.903ZM1388.34 380.831L1355.44 579H1314.22L1347.12 380.831H1388.34ZM1462.58 380.831L1429.69 579H1388.47L1421.36 380.831H1462.58ZM1488.64 581.516C1482.12 581.516 1476.77 579.258 1472.58 574.742C1468.45 570.227 1466.58 564.744 1466.96 558.293C1467.41 551.907 1470.09 546.52 1474.99 542.134C1479.96 537.683 1485.67 535.457 1492.12 535.457C1498.31 535.457 1503.54 537.683 1507.8 542.134C1512.05 546.585 1513.93 551.971 1513.41 558.293C1513.09 562.55 1511.7 566.453 1509.25 570.001C1506.86 573.485 1503.83 576.291 1500.15 578.419C1496.48 580.484 1492.64 581.516 1488.64 581.516ZM1569.8 581.516C1563.28 581.516 1557.93 579.258 1553.73 574.742C1549.61 570.227 1547.74 564.744 1548.12 558.293C1548.57 551.907 1551.25 546.52 1556.15 542.134C1561.12 537.683 1566.83 535.457 1573.28 535.457C1579.47 535.457 1584.7 537.683 1588.96 542.134C1593.21 546.585 1595.08 551.971 1594.57 558.293C1594.25 562.55 1592.86 566.453 1590.41 570.001C1588.02 573.485 1584.99 576.291 1581.31 578.419C1577.63 580.484 1573.8 581.516 1569.8 581.516ZM1650.96 581.516C1644.44 581.516 1639.09 579.258 1634.89 574.742C1630.77 570.227 1628.89 564.744 1629.28 558.293C1629.73 551.907 1632.41 546.52 1637.31 542.134C1642.28 537.683 1647.99 535.457 1654.44 535.457C1660.63 535.457 1665.86 537.683 1670.11 542.134C1674.37 546.585 1676.24 551.971 1675.73 558.293C1675.4 562.55 1674.02 566.453 1671.57 570.001C1669.18 573.485 1666.15 576.291 1662.47 578.419C1658.79 580.484 1654.96 581.516 1650.96 581.516ZM1049.97 909L1082.87 710.831H1124.76L1111.22 792.595H1196.27L1209.82 710.831H1251.62L1218.72 909H1176.92L1190.47 827.139H1105.41L1091.87 909H1049.97ZM1319.84 911.903C1304.61 911.903 1292 908.806 1282 902.614C1272 896.356 1264.97 887.519 1260.91 876.101C1256.91 864.618 1256.23 851.04 1258.88 835.364C1261.46 820.076 1266.65 806.658 1274.46 795.111C1282.33 783.564 1292.19 774.565 1304.06 768.115C1315.93 761.664 1329.16 758.438 1343.74 758.438C1353.54 758.438 1362.41 760.019 1370.35 763.18C1378.35 766.276 1384.99 770.985 1390.28 777.307C1395.57 783.564 1399.18 791.402 1401.12 800.82C1403.12 810.238 1403.08 821.269 1401.02 833.913L1399.18 845.234H1273.78L1277.75 819.689H1364.44C1365.41 813.754 1365.02 808.497 1363.28 803.916C1361.54 799.336 1358.64 795.756 1354.57 793.176C1350.51 790.531 1345.51 789.209 1339.58 789.209C1333.51 789.209 1327.84 790.692 1322.55 793.66C1317.26 796.627 1312.81 800.53 1309.19 805.368C1305.64 810.141 1303.35 815.334 1302.32 820.947L1297.77 846.298C1296.48 854.104 1296.74 860.587 1298.55 865.747C1300.42 870.908 1303.65 874.779 1308.23 877.359C1312.81 879.875 1318.61 881.133 1325.64 881.133C1330.22 881.133 1334.51 880.487 1338.51 879.197C1342.58 877.907 1346.19 876.004 1349.35 873.488C1352.51 870.908 1355.09 867.715 1357.09 863.909L1394.73 866.425C1391.25 875.585 1385.96 883.584 1378.86 890.422C1371.77 897.195 1363.22 902.485 1353.22 906.291C1343.29 910.032 1332.16 911.903 1319.84 911.903ZM1489.73 710.831L1456.83 909H1415.61L1448.51 710.831H1489.73ZM1563.97 710.831L1531.07 909H1489.85L1522.75 710.831H1563.97ZM1631.43 911.903C1616.28 911.903 1603.73 908.677 1593.79 902.227C1583.86 895.711 1576.86 886.68 1572.8 875.133C1568.8 863.522 1568.06 850.007 1570.57 834.59C1573.02 819.366 1578.12 806.045 1585.86 794.627C1593.6 783.209 1603.44 774.34 1615.37 768.018C1627.31 761.631 1640.76 758.438 1655.72 758.438C1670.82 758.438 1683.33 761.696 1693.27 768.211C1703.2 774.662 1710.2 783.693 1714.26 795.305C1718.33 806.916 1719.1 820.431 1716.58 835.848C1714.07 851.007 1708.91 864.296 1701.1 875.714C1693.3 887.132 1683.46 896.034 1671.59 902.42C1659.72 908.742 1646.34 911.903 1631.43 911.903ZM1635.5 879.971C1642.47 879.971 1648.63 878.004 1653.98 874.069C1659.4 870.069 1663.88 864.651 1667.43 857.813C1671.04 850.911 1673.56 843.105 1674.98 834.396C1676.4 825.817 1676.49 818.205 1675.27 811.561C1674.04 804.852 1671.46 799.562 1667.53 795.692C1663.66 791.821 1658.33 789.886 1651.56 789.886C1644.59 789.886 1638.4 791.886 1632.98 795.885C1627.56 799.82 1623.08 805.239 1619.53 812.141C1615.98 819.044 1613.5 826.881 1612.08 835.654C1610.73 844.169 1610.63 851.781 1611.79 858.49C1612.95 865.135 1615.5 870.392 1619.44 874.262C1623.37 878.068 1628.73 879.971 1635.5 879.971ZM1898.09 760.374L1892.96 791.337H1803.36L1808.58 760.374H1898.09ZM1834.71 724.765H1875.93L1852.9 863.328C1852.25 867.134 1852.35 870.102 1853.19 872.23C1854.03 874.295 1855.41 875.746 1857.35 876.585C1859.35 877.423 1861.74 877.843 1864.51 877.843C1866.45 877.843 1868.41 877.681 1870.41 877.359C1872.41 876.972 1873.93 876.681 1874.96 876.488L1876.51 907.162C1874.19 907.871 1871.06 908.645 1867.12 909.484C1863.25 910.322 1858.67 910.838 1853.38 911.032C1843.32 911.419 1834.8 910.097 1827.84 907.065C1820.87 903.968 1815.87 899.227 1812.84 892.841C1809.81 886.454 1809.16 878.423 1810.9 868.747L1834.71 724.765ZM1959.09 823.075L1944.77 909H1903.65L1936.55 710.831H1976.51L1964.13 786.596H1965.77C1970.54 777.823 1977.09 770.953 1985.41 765.986C1993.74 760.954 2003.57 758.438 2014.93 758.438C2025.25 758.438 2033.86 760.696 2040.76 765.212C2047.73 769.663 2052.66 776.081 2055.57 784.467C2058.47 792.789 2058.95 802.755 2057.02 814.367L2041.15 909H2000.03L2014.54 821.721C2016.02 812.561 2014.83 805.432 2010.96 800.336C2007.15 795.24 2001.09 792.692 1992.77 792.692C1987.16 792.692 1982 793.885 1977.29 796.272C1972.58 798.659 1968.61 802.143 1965.38 806.723C1962.22 811.238 1960.13 816.689 1959.09 823.075ZM2140.74 911.903C2125.52 911.903 2112.91 908.806 2102.91 902.614C2092.91 896.356 2085.88 887.519 2081.81 876.101C2077.81 864.618 2077.14 851.04 2079.78 835.364C2082.36 820.076 2087.55 806.658 2095.36 795.111C2103.23 783.564 2113.1 774.565 2124.97 768.115C2136.84 761.664 2150.06 758.438 2164.64 758.438C2174.45 758.438 2183.32 760.019 2191.25 763.18C2199.25 766.276 2205.89 770.985 2211.18 777.307C2216.47 783.564 2220.09 791.402 2222.02 800.82C2224.02 810.238 2223.99 821.269 2221.92 833.913L2220.09 845.234H2094.68L2098.65 819.689H2185.35C2186.32 813.754 2185.93 808.497 2184.19 803.916C2182.45 799.336 2179.54 795.756 2175.48 793.176C2171.41 790.531 2166.42 789.209 2160.48 789.209C2154.42 789.209 2148.74 790.692 2143.45 793.66C2138.16 796.627 2133.71 800.53 2130.1 805.368C2126.55 810.141 2124.26 815.334 2123.23 820.947L2118.68 846.298C2117.39 854.104 2117.65 860.587 2119.45 865.747C2121.32 870.908 2124.55 874.779 2129.13 877.359C2133.71 879.875 2139.52 881.133 2146.55 881.133C2151.13 881.133 2155.42 880.487 2159.42 879.197C2163.48 877.907 2167.09 876.004 2170.25 873.488C2173.41 870.908 2175.99 867.715 2177.99 863.909L2215.63 866.425C2212.15 875.585 2206.86 883.584 2199.77 890.422C2192.67 897.195 2184.12 902.485 2174.12 906.291C2164.19 910.032 2153.06 911.903 2140.74 911.903ZM2236.51 909L2261.28 760.374H2301.25L2296.89 786.306H2298.44C2302.7 777.081 2308.41 770.114 2315.57 765.405C2322.79 760.632 2330.56 758.245 2338.89 758.245C2340.95 758.245 2343.11 758.374 2345.37 758.632C2347.69 758.825 2349.76 759.148 2351.56 759.599L2345.37 796.272C2343.56 795.627 2340.98 795.111 2337.63 794.724C2334.34 794.273 2331.21 794.047 2328.24 794.047C2322.24 794.047 2316.66 795.369 2311.5 798.014C2306.34 800.594 2301.99 804.207 2298.44 808.851C2294.96 813.496 2292.67 818.85 2291.57 824.914L2277.73 909H2236.51ZM2408.43 911.903C2393.21 911.903 2380.6 908.806 2370.6 902.614C2360.6 896.356 2353.57 887.519 2349.51 876.101C2345.51 864.618 2344.83 851.04 2347.47 835.364C2350.05 820.076 2355.25 806.658 2363.05 795.111C2370.92 783.564 2380.79 774.565 2392.66 768.115C2404.53 761.664 2417.75 758.438 2432.33 758.438C2442.14 758.438 2451.01 760.019 2458.94 763.18C2466.94 766.276 2473.59 770.985 2478.88 777.307C2484.17 783.564 2487.78 791.402 2489.71 800.82C2491.71 810.238 2491.68 821.269 2489.62 833.913L2487.78 845.234H2362.37L2366.34 819.689H2453.04C2454.01 813.754 2453.62 808.497 2451.88 803.916C2450.14 799.336 2447.23 795.756 2443.17 793.176C2439.11 790.531 2434.11 789.209 2428.17 789.209C2422.11 789.209 2416.43 790.692 2411.14 793.66C2405.85 796.627 2401.4 800.53 2397.79 805.368C2394.24 810.141 2391.95 815.334 2390.92 820.947L2386.37 846.298C2385.08 854.104 2385.34 860.587 2387.15 865.747C2389.02 870.908 2392.24 874.779 2396.82 877.359C2401.4 879.875 2407.21 881.133 2414.24 881.133C2418.82 881.133 2423.11 880.487 2427.11 879.197C2431.17 877.907 2434.78 876.004 2437.95 873.488C2441.11 870.908 2443.69 867.715 2445.69 863.909L2483.33 866.425C2479.84 875.585 2474.55 883.584 2467.46 890.422C2460.36 897.195 2451.81 902.485 2441.82 906.291C2431.88 910.032 2420.75 911.903 2408.43 911.903Z" fill="black"/>
</svg>
